<svg width="6" height="12" viewBox="0 0 6 12" fill="none" xmlns="http://www.w3.org/2000/svg">
<g opacity="0.700126">
<path d="M0.12665 6.3293L5.2652 11.8643C5.43356 12.0455 5.70614 12.0452 5.87421 11.8634C6.04216 11.6815 6.04173 11.3869 5.87335 11.2055L1.04066 5.99998L5.87352 0.794433C6.04188 0.613028 6.04231 0.31863 5.87439 0.136755C5.79013 0.0455839 5.67975 -1.43051e-06 5.56937 -1.43051e-06C5.45927 -1.43051e-06 5.34933 0.0452793 5.26522 0.135818L0.12665 5.67068C0.0455623 5.75782 6.03199e-05 5.87642 6.03199e-05 5.99998C6.03199e-05 6.12354 0.0456925 6.24199 0.12665 6.3293Z" fill="black"/>
</g>
</svg>
